# xmcd
#
# Track frame offsets: 
#        150
#        17729
#        39327
#        58796
#        74816
#        88417
#        103998
#        131000
#        149822
#        169387
#        186825
#        203472
#        220772
#        240569
#        254794
#        271108
#        290028
#        308869
#        328328
#
# Disc length: 4774 seconds
#
# Revision: 2
# Processed by: cddbd v1.5.2PL0 Copyright (c) Steve Scherf et al.
# Submitted via: ExactAudioCopy v1.3
#
DISCID=3d12a413
DTITLE=Various Artist - Akella Presents - vol.84 - Country-Blues  CD2
DYEAR=2016
DGENRE=Americana
TTITLE0=Crooked Eye Tommy - Southern Heart
TTITLE1=Don Henley - Waiting Tables
TTITLE2=John, Shane and Tyler Fogerty - Lodi
TTITLE3=Thorbjorn Risager - In The Back Of My Mind
TTITLE4=John Mayer - Something Like Olivia
TTITLE5=Peter Karp - All I Really Want
TTITLE6=Blue Henry - Irish Royalty
TTITLE7=Bargel and Heuser - High Speed Train
TTITLE8=Jeremiah Johnson Band - Everybody Party
TTITLE9=Karen Lawrence - Travelin' Blues
TTITLE10=Barbara Blue - Drunken Angel
TTITLE11=Eric Clapton - Can't Let You Do It
TTITLE12=Malcolm Holcombe - Another Black Hole
TTITLE13=Bill Wharton - Locals
TTITLE14=Danny Brooks - Georgia Bound
TTITLE15=R.J. Mischo - Little Joe
TTITLE16=Lucinda Williams - Walk On
TTITLE17=John Illsley - Comes Around Again
TTITLE18=Mudcrutch - Beautiful Blue
EXTD=
EXTT0=
EXTT1=
EXTT2=
EXTT3=
EXTT4=
EXTT5=
EXTT6=
EXTT7=
EXTT8=
EXTT9=
EXTT10=
EXTT11=
EXTT12=
EXTT13=
EXTT14=
EXTT15=
EXTT16=
EXTT17=
EXTT18=
PLAYORDER=
